<svg width="583" height="706" viewBox="0 0 583 706" fill="none" xmlns="http://www.w3.org/2000/svg">
<ellipse cx="91.5457" cy="94.4128" rx="91.3253" ry="93.8394" fill="#202123"/>
<ellipse cx="491.454" cy="94.4128" rx="91.3253" ry="93.8394" fill="#6439FF"/>
<path fill-rule="evenodd" clip-rule="evenodd" d="M444.568 212.253C430.798 203.772 412.367 201.9 403.693 215.549C397.509 225.324 390.612 238.398 383.002 254.771C375.391 271.144 367.543 288.861 359.457 307.922C351.609 326.983 344.117 345.8 336.982 364.372C329.848 382.7 323.783 398.951 318.789 413.125C313.081 429.009 308.205 443.427 304.162 456.379C300.489 468.646 297.037 481.141 293.807 493.863C293.603 494.669 292.877 495.234 292.046 495.234C291.202 495.234 290.471 494.654 290.276 493.833C287.261 481.096 283.804 468.244 279.904 455.279C275.861 441.594 271.461 427.543 266.705 413.125C262.186 398.951 256.359 382.334 249.224 363.273C242.328 343.967 234.955 324.539 227.107 304.99C219.258 285.195 211.648 267.234 204.275 251.105C197.141 234.977 190.957 222.88 185.725 214.816C175.684 199.2 155.305 201.501 139.653 211.487C125.683 220.4 109.199 225.547 91.5457 225.547C75.7771 225.547 60.942 221.441 47.9978 214.212C38.5499 208.935 26.0835 211.21 23.7653 221.78C18.0574 248.173 12.7063 300.224 7.71198 377.935C2.95546 455.646 0.458285 559.627 0.220459 689.878C0.220459 694.521 1.64742 698.309 4.50133 701.241C7.35524 704.173 10.8037 705.64 14.8468 705.64H87.9783C92.0214 705.64 95.4698 704.296 98.3238 701.608C101.178 698.675 102.605 695.009 102.605 690.611C102.842 640.27 103.318 590.906 104.032 542.521C104.983 494.135 106.172 449.292 107.599 407.993C109.005 367.29 110.643 332.64 112.511 304.043C112.557 303.336 113.144 302.79 113.853 302.79C114.388 302.79 114.871 303.104 115.085 303.594C122.37 320.322 130.577 341.193 139.706 366.205C149.219 391.376 158.969 418.99 168.958 449.048C179.185 478.861 189.054 509.286 198.568 540.321C208.081 571.357 216.761 600.804 224.609 628.662C227.939 640.881 231.863 648.823 236.382 652.489C241.138 656.154 250.533 657.987 264.564 657.987H305.589C321.999 657.987 332.464 655.91 336.982 651.755C341.739 647.357 345.663 639.659 348.755 628.662C359.457 591.762 371.586 554.006 385.142 515.395C398.698 476.54 412.611 438.906 426.881 402.495C441.02 366.174 454.341 333.213 466.846 303.61C467.056 303.112 467.543 302.79 468.084 302.79C468.788 302.79 469.373 303.33 469.423 304.033C470.086 313.486 470.532 326.635 470.76 343.478C471.235 360.829 471.592 384.289 471.83 413.858C472.068 443.427 472.187 480.694 472.187 525.659V689.878C472.187 694.521 473.613 698.309 476.467 701.241C479.321 704.173 482.77 705.64 486.813 705.64H568.149C572.192 705.64 575.641 704.173 578.495 701.241C581.349 698.309 582.776 694.643 582.776 690.244C582.776 607.402 582.3 537.877 581.349 481.672C580.397 425.221 579.089 379.035 577.425 343.112C575.76 307.189 573.738 279.086 571.36 258.803C568.982 238.52 566.485 223.125 563.868 212.616C561.734 204.138 551.568 202.909 544.522 208.087C529.565 219.079 511.245 225.547 491.454 225.547C474.312 225.547 458.273 220.694 444.568 212.253Z" fill="#6439FF"/>
</svg>
